<svg width="24" height="24" viewBox="0 0 24 24" fill="none" xmlns="http://www.w3.org/2000/svg">
<path d="M10.085 0.564407C10.599 0.197327 11.2149 0 11.8465 0C12.4781 0 13.094 0.197327 13.608 0.564407L21.5 6.19941C22.178 6.68377 22.7307 7.323 23.1119 8.06394C23.4932 8.80488 23.692 9.62613 23.692 10.4594V19.0534C23.692 20.1495 23.2566 21.2008 22.4815 21.9759C21.7064 22.751 20.6551 23.1864 19.559 23.1864H16.412C15.6081 23.1864 14.8372 22.8671 14.2688 22.2986C13.7003 21.7302 13.381 20.9593 13.381 20.1554V18.5054C13.381 18.3968 13.3596 18.2893 13.318 18.1889C13.2765 18.0886 13.2156 17.9974 13.1388 17.9206C13.062 17.8438 12.9708 17.7829 12.8705 17.7414C12.7701 17.6998 12.6626 17.6784 12.554 17.6784H11.138C10.9187 17.6784 10.7083 17.7655 10.5532 17.9206C10.3981 18.0757 10.311 18.2861 10.311 18.5054V20.1584C10.311 20.9621 9.9918 21.7329 9.4236 22.3013C8.85539 22.8697 8.0847 23.1891 7.281 23.1894H4.133C3.03686 23.1894 1.98562 22.754 1.21053 21.9789C0.43544 21.2038 4.88227e-07 20.1525 4.88227e-07 19.0564V10.4614C-0.000359501 9.62779 0.198362 8.80615 0.579629 8.06483C0.960897 7.32352 1.51369 6.68397 2.192 6.19941L10.085 0.564407ZM12.647 1.90941C12.4135 1.7429 12.1338 1.65341 11.847 1.65341C11.5602 1.65341 11.2805 1.7429 11.047 1.90941L3.153 7.54741C2.68915 7.87873 2.31107 8.31597 2.05018 8.82279C1.78929 9.32961 1.65313 9.89138 1.653 10.4614V19.0564C1.653 19.7141 1.91429 20.3449 2.37938 20.81C2.84447 21.2751 3.47526 21.5364 4.133 21.5364H7.281C7.64647 21.5364 7.99697 21.3912 8.25539 21.1328C8.51382 20.8744 8.659 20.5239 8.659 20.1584V18.5054C8.659 17.8477 8.92029 17.2169 9.38538 16.7518C9.85047 16.2867 10.4813 16.0254 11.139 16.0254H12.556C13.2137 16.0254 13.8445 16.2867 14.3096 16.7518C14.7747 17.2169 15.036 17.8477 15.036 18.5054V20.1584C15.036 20.5239 15.1812 20.8744 15.4396 21.1328C15.698 21.3912 16.0485 21.5364 16.414 21.5364H19.563C20.2207 21.5364 20.8515 21.2751 21.3166 20.81C21.7817 20.3449 22.043 19.7141 22.043 19.0564V10.4614C22.043 9.89121 21.9069 9.32924 21.646 8.82224C21.3852 8.31523 21.007 7.87783 20.543 7.54641L12.647 1.90941Z" fill="#B7BECD"/>
</svg>
