<svg width="24" height="25" viewBox="0 0 24 25" fill="none" xmlns="http://www.w3.org/2000/svg">
<path d="M13.8517 2.75919C13.7806 2.75904 13.7099 2.74894 13.6417 2.72919C13.3656 2.65216 13.0851 2.59205 12.8017 2.54919C11.9848 2.43645 11.1532 2.49779 10.3617 2.72919C10.2272 2.77093 10.0836 2.77362 9.94756 2.73696C9.81157 2.7003 9.68878 2.62579 9.59346 2.52209C9.49815 2.4184 9.43423 2.28978 9.40913 2.15119C9.38403 2.01259 9.39878 1.86973 9.45168 1.73919C9.65266 1.22658 10.0035 0.786437 10.4584 0.476192C10.9132 0.165947 11.4511 0 12.0017 0C12.5523 0 13.0901 0.165947 13.545 0.476192C13.9999 0.786437 14.3507 1.22658 14.5517 1.73919C14.602 1.86956 14.6156 2.01124 14.5909 2.14879C14.5662 2.28634 14.5042 2.41446 14.4117 2.51919C14.3395 2.59504 14.2526 2.65543 14.1563 2.69669C14.0601 2.73795 13.9564 2.75921 13.8517 2.75919Z" fill="#B7BECD"/>
<path d="M12.0245 21.1227C9.68962 21.1251 7.36972 20.7503 5.15446 20.0127C4.75606 19.8874 4.39098 19.674 4.0863 19.3884C3.78162 19.1028 3.54516 18.7522 3.39446 18.3627C3.25333 17.972 3.20427 17.5539 3.2511 17.1411C3.29793 16.7283 3.43938 16.3319 3.66446 15.9827L4.81446 14.0727C5.08649 13.5557 5.24342 12.986 5.27446 12.4027V9.5127C5.27446 7.72248 5.98562 6.0056 7.25149 4.73972C8.51736 3.47385 10.2342 2.7627 12.0245 2.7627C13.8147 2.7627 15.5316 3.47385 16.7974 4.73972C18.0633 6.0056 18.7745 7.72248 18.7745 9.5127V12.4027C18.8081 12.9888 18.9648 13.5612 19.2345 14.0827L20.3745 15.9827C20.5866 16.3378 20.7165 16.7359 20.7546 17.1477C20.7927 17.5596 20.7379 17.9748 20.5945 18.3627C20.4529 18.7492 20.2254 19.0985 19.9292 19.3843C19.633 19.6701 19.2758 19.885 18.8845 20.0127C16.6728 20.7511 14.3561 21.1259 12.0245 21.1227ZM12.0245 4.2627C10.6326 4.26428 9.29813 4.81792 8.3139 5.80214C7.32968 6.78636 6.77605 8.1208 6.77446 9.5127V12.4027C6.73881 13.2563 6.50971 14.0906 6.10446 14.8427L4.95446 16.7527C4.84748 16.9107 4.7783 17.0912 4.75229 17.2802C4.72628 17.4692 4.74413 17.6617 4.80446 17.8427C4.8773 18.0211 4.98994 18.1805 5.13379 18.3088C5.27764 18.437 5.44888 18.5307 5.63446 18.5827C9.78287 19.9826 14.2761 19.9826 18.4245 18.5827C18.6015 18.5247 18.763 18.427 18.8964 18.297C19.0299 18.167 19.1318 18.0082 19.1945 17.8327C19.2603 17.6568 19.2855 17.4683 19.2681 17.2812C19.2508 17.0942 19.1914 16.9135 19.0945 16.7527L17.9445 14.8427C17.5371 14.0879 17.3079 13.2498 17.2745 12.3927V9.5127C17.2746 8.82322 17.1389 8.14047 16.8751 7.50345C16.6113 6.86643 16.2246 6.28763 15.7371 5.80009C15.2495 5.31256 14.6707 4.92585 14.0337 4.66206C13.3967 4.39827 12.7139 4.26256 12.0245 4.2627Z" fill="#B7BECD"/>
<path d="M12 24.873C11.0059 24.8715 10.053 24.4759 9.3501 23.7729C8.64718 23.07 8.25159 22.1171 8.25 21.123H9.75C9.75 21.7198 9.98705 22.2921 10.409 22.714C10.831 23.136 11.4033 23.373 12 23.373C12.5967 23.373 13.169 23.136 13.591 22.714C14.0129 22.2921 14.25 21.7198 14.25 21.123H15.75C15.7497 22.1175 15.3546 23.0712 14.6514 23.7744C13.9482 24.4776 12.9945 24.8728 12 24.873Z" fill="#B7BECD"/>
</svg>
