<svg width="30" height="30" viewBox="0 0 30 30" fill="none" xmlns="http://www.w3.org/2000/svg">
<path d="M9.30388 10.7515C11.1603 7.68735 15.559 8.12518 19.1381 8.00405C22.432 7.8902 26.1031 7.64052 28.2948 10.1017C30.4549 12.5221 29.8932 16.1374 29.2269 19.3098C28.7507 22.17 27.1801 24.7327 24.8476 26.4553C22.1466 28.313 18.7434 29.9268 15.7483 28.5978C12.8358 27.3056 12.6184 23.5441 11.5376 20.5505C10.34 17.2337 7.47693 13.7667 9.30388 10.7515Z" fill="url(#paint0_linear_1620_130)"/>
<path d="M10.745 1.653C9.97366 1.653 9.21964 1.88173 8.57828 2.31027C7.93693 2.73881 7.43706 3.34791 7.14188 4.06054C6.8467 4.77317 6.76946 5.55733 6.91994 6.31385C7.07043 7.07038 7.44187 7.76529 7.98729 8.31072C8.53272 8.85614 9.22763 9.22758 9.98416 9.37807C10.7407 9.52855 11.5248 9.45131 12.2375 9.15613C12.9501 8.86095 13.5592 8.36108 13.9877 7.71973C14.4163 7.07837 14.645 6.32435 14.645 5.553C14.645 5.04085 14.5441 4.53371 14.3481 4.06054C14.1521 3.58737 13.8649 3.15743 13.5027 2.79529C13.1406 2.43314 12.7106 2.14587 12.2375 1.94987C11.7643 1.75388 11.2572 1.653 10.745 1.653ZM5.19501 5.55C5.19501 4.45232 5.52051 3.37928 6.13035 2.46659C6.74019 1.55389 7.60699 0.842537 8.62111 0.422471C9.63524 0.00240475 10.7512 -0.107504 11.8278 0.106644C12.9044 0.320792 13.8933 0.849378 14.6694 1.62556C15.4456 2.40174 15.9742 3.39066 16.1884 4.46725C16.4025 5.54385 16.2926 6.65977 15.8725 7.6739C15.4525 8.68803 14.7411 9.55482 13.8284 10.1647C12.9157 10.7745 11.8427 11.1 10.745 11.1C9.27306 11.1 7.86139 10.5153 6.82056 9.47445C5.77974 8.43362 5.19501 7.02195 5.19501 5.55Z" fill="#383D48"/>
<path d="M2.27 16.438C3.986 14.604 6.777 13.224 11.06 13.224C15.343 13.224 18.134 14.604 19.85 16.438C21.2582 17.9236 22.0667 19.8778 22.12 21.924C22.12 22.1433 22.0329 22.3537 21.8778 22.5088C21.7227 22.6639 21.5123 22.751 21.293 22.751H0.827C0.607666 22.751 0.397315 22.6639 0.242223 22.5088C0.0871301 22.3537 0 22.1433 0 21.924C0.0532508 19.8778 0.861841 17.9236 2.27 16.438ZM1.723 21.096H20.4C20.1755 19.7729 19.5657 18.5453 18.647 17.567C17.293 16.121 14.968 14.877 11.064 14.877C7.16 14.877 4.83 16.124 3.477 17.567C2.55795 18.5452 1.94783 19.7727 1.723 21.096Z" fill="#383D48"/>
<defs>
<linearGradient id="paint0_linear_1620_130" x1="14.9127" y1="0" x2="14.9127" y2="29.0852" gradientUnits="userSpaceOnUse">
<stop stop-color="#FFDE2F"/>
<stop offset="1" stop-color="#FFAB2D"/>
</linearGradient>
</defs>
</svg>
